# xmcd
#
# Track frame offsets:
#	150
#	13788
#	22439
#	30771
#	46396
#	59859
#	68384
#	80395
#	93996
#	106425
#	123846
#	141147
#	156663
#	169861
#	190298
#	203892
#	214537
#	227819
#	240886
#	254954
#
# Disc length: 3597 seconds
#
# Revision: 1
# Processed by: cddbd v1.5.2PL0 Copyright (c) Steve Scherf et al.
# Submitted via: audiograbber 1.83.01
#
DISCID=1b0e0b14
DTITLE=Südtiroler Spitzbuam - Hits LIVE
DYEAR=2007
DGENRE=Volkstümlich
TTITLE0=Wir bleib'm Landleut
TTITLE1=Ewalds Jodlergruss 
TTITLE2=Spitzbuam-Boarischer 
TTITLE3=Der Wind  bringt dir mein Lied
TTITLE4=Die Sterne am Himmel 
TTITLE5=Einmal Tiroler sein
TTITLE6=Wohl ist die Welt so gross und weit
TTITLE7=Das "S" von Südtirol 
TTITLE8=Das Glöcklein vom Kalterersee 
TTITLE9=Hey Hubi spiel uns eins
TTITLE10=Gefangenen Chor aus Nabucco 
TTITLE11=Viva Colonia
TTITLE12=Rock me 
TTITLE13=Fürstenfeld 
TTITLE14=La Montanra 
TTITLE15=Tragl-Boarischer 
TTITLE16=Junge Adler 
TTITLE17=Uns're Lieder 
TTITLE18=Mille Grazie 
TTITLE19=Dem Land Tirol die Treue 
EXTD=YEAR: 2007
EXTT0=
EXTT1=
EXTT2=
EXTT3=
EXTT4=
EXTT5=
EXTT6=
EXTT7=
EXTT8=
EXTT9=
EXTT10=
EXTT11=
EXTT12=
EXTT13=
EXTT14=
EXTT15=
EXTT16=
EXTT17=
EXTT18=
EXTT19=
PLAYORDER=
